<!--?xml version="1.0" standalone="no"?-->
              <svg id="sw-js-blob-svg" viewBox="0 0 100 100" xmlns="http://www.w3.org/2000/svg" version="1.1">
                    <defs> 
                        <linearGradient id="sw-gradient" x1="0" x2="1" y1="1" y2="0">
                            <stop id="stop1" stop-color="rgba(248, 117, 55, 1)" offset="0%"></stop>
                            <stop id="stop2" stop-color="rgba(106.267, 101.483, 252.78, 1)" offset="100%"></stop>
                        </linearGradient>
                    </defs>
                <path fill="url(#sw-gradient)" d="M21.1,-26.6C28.8,-23.5,37.5,-19.2,41.8,-12.1C46.2,-5,46.2,5,43.2,13.9C40.2,22.8,34,30.6,26.3,35.1C18.6,39.6,9.3,40.7,-0.2,41C-9.7,41.2,-19.3,40.6,-24.9,35.4C-30.5,30.2,-32,20.6,-34.7,11.5C-37.3,2.4,-41.1,-6.1,-39.7,-13.6C-38.2,-21.1,-31.5,-27.6,-24,-30.7C-16.5,-33.9,-8.2,-33.7,-0.8,-32.7C6.7,-31.6,13.4,-29.7,21.1,-26.6Z" width="100%" height="100%" transform="translate(50 50)" stroke-width="0" style="transition: all 0.3s ease 0s;" stroke="url(#sw-gradient)"></path>
              </svg>